<?xml version="1.0" encoding="UTF-8" standalone="no"?>
<!-- Created with Inkscape (http://www.inkscape.org/) -->

<svg
   width="210mm"
   height="148mm"
   viewBox="0 0 793.70081 559.37006"
   version="1.1"
   id="svg5"
   inkscape:version="1.1.2 (0a00cf5339, 2022-02-04)"
   sodipodi:docname="note-img4.svg"
   xmlns:inkscape="http://www.inkscape.org/namespaces/inkscape"
   xmlns:sodipodi="http://sodipodi.sourceforge.net/DTD/sodipodi-0.dtd"
   xmlns="http://www.w3.org/2000/svg"
   xmlns:svg="http://www.w3.org/2000/svg">
  <sodipodi:namedview
     id="namedview7"
     pagecolor="#ffffff"
     bordercolor="#666666"
     borderopacity="1.0"
     inkscape:pageshadow="2"
     inkscape:pageopacity="0.0"
     inkscape:pagecheckerboard="0"
     inkscape:document-units="mm"
     showgrid="false"
     inkscape:snap-text-baseline="true"
     inkscape:zoom="1.2853744"
     inkscape:cx="397.16054"
     inkscape:cy="279.68504"
     inkscape:window-width="1858"
     inkscape:window-height="1016"
     inkscape:window-x="62"
     inkscape:window-y="27"
     inkscape:window-maximized="1"
     inkscape:current-layer="layer1" />
  <defs
     id="defs2" />
  <g
     inkscape:label="Layer 1"
     inkscape:groupmode="layer"
     id="layer1">
    <path
       style="fill:#ffd5d5;stroke:#000000;stroke-width:1px;stroke-linecap:butt;stroke-linejoin:miter;stroke-opacity:1"
       d="m 229.01065,109.45342 73.65614,-0.68418 -1.56175,157.81648 -66.63772,120.19388 -113.88008,-29.38022 18.59776,-52.44745 69.71162,18.28456 28.48101,-63.216 z"
       id="path857" />
    <path
       style="fill:#ff0000;stroke:#000000;stroke-width:1px;stroke-linecap:butt;stroke-linejoin:miter;stroke-opacity:1"
       d="m 234.46732,386.7796 63.61657,2.11638 3.02115,-122.31026"
       id="path892" />
    <path
       style="fill:#ff8080;stroke:#000000;stroke-width:1px;stroke-linecap:butt;stroke-linejoin:miter;stroke-opacity:1"
       d="m 301.10504,266.58572 c -4.02473,19.1568 2.93661,39.15021 -3.36223,58.04671 -1.94669,5.84007 -4.88124,13.01058 -8.60321,17.97321 -1.32557,1.76742 -2.92825,2.82776 -4.10521,4.78936 -1.24459,2.07431 -2.42162,5.15843 -4.10521,6.84202 -3.49653,3.49653 0.95428,-2.86884 -2.73681,2.05261 -1.68506,0.24065 -0.28511,1.44843 -0.6842,2.04704 -0.92859,1.39286 -3.37601,3.71006 -4.7123,4.71226 -1.00343,0.75255 -2.43612,0.87889 -3.41512,1.3684 -3.02364,1.51184 -6.71787,3.56631 -9.56116,5.46184 -6.25998,4.17331 -11.29629,11.4362 -15.03397,15.22523 -1.11726,1.13261 -6.47003,-0.354 -7.24322,0.64413 -1.2143,1.56757 1.75729,0.95468 -3.07508,1.03107"
       id="path960" />
  </g>
</svg>
